<?xml version="1.0" encoding="utf-8"?>
<!-- Generator: Adobe Illustrator 25.0.0, SVG Export Plug-In . SVG Version: 6.00 Build 0)  -->
<svg version="1.1" id="Layer_1" xmlns="http://www.w3.org/2000/svg" xmlns:xlink="http://www.w3.org/1999/xlink" x="0px" y="0px"
	 viewBox="0 0 51 16" style="enable-background:new 0 0 51 16;" xml:space="preserve">
<style type="text/css">
	.st0{fill:#4373B9;}
</style>
<g>
	<path class="st0" d="M51,16H0V0h51V16z M20.86,9.24c0,0.66,0.24,1.18,0.72,1.55c0.48,0.38,1.13,0.56,1.97,0.56
		c0.82,0,1.45-0.19,1.9-0.57s0.67-0.86,0.67-1.44c0-0.56-0.19-1-0.57-1.29c-0.24-0.19-0.61-0.34-1.1-0.46l-1.11-0.26
		c-0.43-0.1-0.71-0.19-0.84-0.26c-0.21-0.11-0.31-0.28-0.31-0.51c0-0.25,0.1-0.44,0.31-0.58s0.49-0.21,0.84-0.21
		c0.31,0,0.58,0.05,0.79,0.16c0.32,0.16,0.49,0.43,0.51,0.81h1.27c-0.02-0.67-0.27-1.19-0.75-1.54c-0.48-0.35-1.05-0.53-1.73-0.53
		c-0.81,0-1.42,0.19-1.84,0.56c-0.42,0.38-0.63,0.85-0.63,1.41c0,0.62,0.21,1.08,0.64,1.37c0.25,0.17,0.71,0.34,1.39,0.49l0.69,0.15
		c0.4,0.09,0.69,0.18,0.88,0.3c0.19,0.11,0.28,0.28,0.28,0.49c0,0.36-0.19,0.6-0.57,0.73c-0.2,0.07-0.46,0.1-0.78,0.1
		c-0.53,0-0.91-0.13-1.13-0.39c-0.12-0.14-0.2-0.36-0.24-0.65L20.86,9.24L20.86,9.24z M29.52,6.39c-0.26,0-0.5,0.05-0.73,0.16
		s-0.44,0.3-0.61,0.57V4.89h-1.22v6.31h1.22V8.66c0-0.4,0.08-0.71,0.25-0.93s0.41-0.33,0.73-0.33c0.31,0,0.52,0.11,0.63,0.33
		c0.09,0.16,0.13,0.36,0.13,0.61v2.85h1.25V8.44c0-0.42-0.01-0.72-0.04-0.91c-0.03-0.18-0.11-0.36-0.24-0.54
		c-0.15-0.21-0.34-0.36-0.58-0.46C30.07,6.44,29.81,6.39,29.52,6.39z M33.75,8.4c-0.48,0.06-0.84,0.16-1.08,0.3
		C32.22,8.96,32,9.38,32,9.95c0,0.44,0.14,0.79,0.42,1.03s0.63,0.36,1.06,0.36c0.33,0,0.63-0.08,0.9-0.23
		c0.22-0.13,0.42-0.28,0.59-0.47c0.01,0.11,0.02,0.2,0.03,0.28s0.04,0.17,0.08,0.27h1.33v-0.18c-0.08-0.04-0.14-0.08-0.18-0.14
		s-0.06-0.17-0.07-0.33c-0.01-0.21-0.01-0.39-0.01-0.54V7.85c0-0.56-0.2-0.95-0.6-1.15c-0.4-0.2-0.86-0.3-1.37-0.3
		c-0.79,0-1.35,0.21-1.67,0.62c-0.2,0.26-0.32,0.6-0.35,1.01h1.18c0.03-0.18,0.09-0.32,0.17-0.43c0.12-0.14,0.33-0.21,0.62-0.21
		c0.26,0,0.46,0.04,0.59,0.11c0.14,0.07,0.2,0.21,0.2,0.4c0,0.16-0.09,0.27-0.26,0.35c-0.1,0.04-0.26,0.08-0.49,0.11L33.75,8.4z
		 M34.92,9.38c-0.01,0.41-0.13,0.69-0.35,0.85c-0.23,0.16-0.47,0.23-0.74,0.23c-0.17,0-0.31-0.05-0.43-0.14s-0.18-0.24-0.18-0.45
		c0-0.24,0.1-0.41,0.29-0.52c0.11-0.07,0.3-0.12,0.56-0.17l0.28-0.05c0.14-0.03,0.25-0.05,0.33-0.08s0.16-0.07,0.24-0.12
		C34.92,8.93,34.92,9.38,34.92,9.38z M39.75,6.4c-0.37,0-0.67,0.1-0.89,0.29c-0.14,0.12-0.31,0.33-0.49,0.64V6.51H37.2v4.68h1.23
		V8.95c0-0.38,0.05-0.65,0.14-0.83c0.17-0.32,0.5-0.48,0.99-0.48c0.04,0,0.09,0,0.15,0s0.13,0.01,0.21,0.02V6.41
		c-0.05,0-0.09,0-0.11-0.01C39.8,6.4,39.78,6.4,39.75,6.4z M42.59,6.39c-0.69,0-1.25,0.22-1.68,0.65c-0.43,0.43-0.65,1.06-0.65,1.87
		c0,0.87,0.24,1.49,0.71,1.88c0.48,0.38,1.03,0.58,1.65,0.58c0.76,0,1.34-0.23,1.76-0.68c0.27-0.29,0.42-0.57,0.45-0.85H43.6
		c-0.07,0.14-0.16,0.25-0.25,0.32c-0.17,0.14-0.4,0.21-0.68,0.21c-0.26,0-0.49-0.06-0.68-0.18C41.68,10,41.52,9.67,41.5,9.2h3.41
		c0.01-0.4-0.01-0.71-0.04-0.93C44.81,7.9,44.69,7.58,44.5,7.3c-0.21-0.32-0.48-0.55-0.81-0.69C43.36,6.46,42.99,6.39,42.59,6.39z
		 M42.59,7.4c0.29,0,0.53,0.08,0.73,0.25s0.3,0.42,0.33,0.74h-2.11c0.04-0.3,0.15-0.55,0.33-0.73C42.03,7.49,42.27,7.4,42.59,7.4z
		 M15.69,8.06c0-2.65-2.15-4.8-4.8-4.8s-4.8,2.15-4.8,4.8c0,2.4,1.76,4.38,4.05,4.74V9.45H8.92V8.06h1.22V7
		c0-1.2,0.72-1.87,1.81-1.87c0.53,0,1.07,0.09,1.07,0.09V6.4h-0.61c-0.6,0-0.78,0.37-0.78,0.75v0.9h1.33l-0.21,1.39h-1.12v3.35
		C13.93,12.44,15.69,10.45,15.69,8.06L15.69,8.06z"/>
</g>
</svg>
