<?xml version="1.0" encoding="utf-8"?>
<!-- Generator: Adobe Illustrator 25.0.0, SVG Export Plug-In . SVG Version: 6.00 Build 0)  -->
<svg version="1.1" id="Layer_1" xmlns="http://www.w3.org/2000/svg" xmlns:xlink="http://www.w3.org/1999/xlink" x="0px" y="0px"
	 viewBox="0 0 51 16" style="enable-background:new 0 0 51 16;" xml:space="preserve">
<style type="text/css">
	.st0{fill:#3393D0;}
</style>
<g>
	<path class="st0" d="M51,16h-2.52H0V0h51v2.4V16z M20.17,5.87h1.99v5.33h1.1V5.87h2V4.92h-5.09V5.87z M25.87,11.2h1.06l0.84-3.38
		h0.02l0.84,3.38h1.03l1.42-4.55h-1.02l-0.92,3.4h-0.02l-0.82-3.4h-1.01l-0.85,3.4h-0.02l-0.89-3.4h-1.06L25.87,11.2z M35.85,9.18
		c0.04-0.34,0.02-0.67-0.07-0.99s-0.22-0.6-0.41-0.85s-0.42-0.44-0.71-0.59s-0.61-0.22-0.96-0.22c-0.34,0-0.64,0.06-0.92,0.19
		c-0.27,0.13-0.5,0.3-0.69,0.52s-0.34,0.48-0.44,0.77c-0.1,0.29-0.15,0.6-0.15,0.92c0,0.35,0.05,0.67,0.14,0.97
		c0.1,0.29,0.24,0.55,0.43,0.76s0.42,0.38,0.7,0.49c0.28,0.12,0.59,0.18,0.95,0.18c0.25,0,0.48-0.03,0.71-0.1s0.43-0.17,0.61-0.3
		s0.34-0.29,0.47-0.49s0.22-0.41,0.27-0.66h-0.95c-0.09,0.25-0.22,0.44-0.4,0.57s-0.42,0.19-0.71,0.19c-0.21,0-0.39-0.04-0.54-0.11
		s-0.28-0.17-0.38-0.29c-0.1-0.12-0.17-0.27-0.22-0.43C32.53,9.55,32.5,9.38,32.5,9.2h3.35V9.18z M32.51,8.52
		c0.01-0.17,0.04-0.33,0.1-0.48c0.06-0.15,0.14-0.27,0.25-0.38s0.23-0.19,0.37-0.25s0.3-0.09,0.48-0.09c0.17,0,0.32,0.03,0.46,0.1
		c0.14,0.07,0.25,0.16,0.35,0.26s0.17,0.24,0.23,0.38s0.09,0.3,0.1,0.46C34.85,8.52,32.51,8.52,32.51,8.52z M40.75,9.18
		c0.04-0.34,0.02-0.67-0.07-0.99s-0.22-0.6-0.41-0.85s-0.42-0.44-0.71-0.59s-0.61-0.22-0.96-0.22c-0.34,0-0.64,0.06-0.92,0.19
		c-0.27,0.13-0.5,0.3-0.69,0.52s-0.34,0.48-0.44,0.77c-0.1,0.29-0.15,0.6-0.15,0.92c0,0.35,0.05,0.67,0.14,0.97
		c0.1,0.29,0.24,0.55,0.43,0.76s0.42,0.38,0.7,0.49c0.28,0.12,0.59,0.18,0.95,0.18c0.25,0,0.48-0.03,0.71-0.1s0.43-0.17,0.61-0.3
		s0.34-0.29,0.47-0.49s0.22-0.41,0.27-0.66h-0.95c-0.09,0.25-0.22,0.44-0.4,0.57s-0.42,0.19-0.71,0.19c-0.21,0-0.39-0.04-0.54-0.11
		s-0.28-0.17-0.38-0.29c-0.1-0.12-0.17-0.27-0.22-0.43C37.43,9.55,37.4,9.38,37.4,9.2h3.35V9.18z M37.4,8.52
		c0.01-0.17,0.04-0.33,0.1-0.48c0.06-0.15,0.14-0.27,0.25-0.38s0.23-0.19,0.37-0.25s0.3-0.09,0.48-0.09c0.17,0,0.32,0.03,0.46,0.1
		c0.14,0.07,0.25,0.16,0.35,0.26s0.17,0.24,0.23,0.38s0.09,0.3,0.1,0.46C39.74,8.52,37.4,8.52,37.4,8.52z M41.05,7.4h0.76v2.68
		c0.01,0.19,0.02,0.35,0.06,0.5s0.09,0.27,0.19,0.37c0.09,0.1,0.22,0.17,0.38,0.22s0.37,0.08,0.64,0.08c0.11,0,0.22-0.01,0.33-0.02
		s0.21-0.02,0.33-0.04v-0.77c-0.07,0.02-0.14,0.03-0.21,0.03s-0.14,0-0.21,0c-0.11,0-0.2-0.01-0.26-0.04
		c-0.06-0.03-0.11-0.07-0.14-0.12s-0.05-0.12-0.06-0.19s-0.01-0.17-0.01-0.27V7.4h0.91V6.65h-0.91V5.29h-1v1.36h-0.76V7.4H41.05z
		 M17.21,4.76c-0.37,0.16-0.76,0.27-1.17,0.32c0.42-0.25,0.74-0.65,0.9-1.13c-0.39,0.23-0.83,0.4-1.29,0.49
		c-0.37-0.4-0.9-0.64-1.49-0.64c-1.12,0-2.04,0.91-2.04,2.04c0,0.16,0.02,0.31,0.05,0.46c-1.69-0.08-3.19-0.9-4.2-2.13
		c-0.18,0.3-0.28,0.65-0.28,1.02c0,0.71,0.36,1.33,0.91,1.7c-0.33-0.01-0.65-0.1-0.92-0.26c0,0.01,0,0.02,0,0.03
		c0,0.99,0.7,1.81,1.63,2C9.14,8.71,8.96,8.73,8.77,8.73c-0.13,0-0.26-0.01-0.38-0.04c0.26,0.81,1.01,1.4,1.9,1.41
		c-0.7,0.55-1.58,0.87-2.53,0.87c-0.16,0-0.33-0.01-0.49-0.03c0.9,0.58,1.97,0.92,3.12,0.92c3.75,0,5.79-3.1,5.79-5.79
		c0-0.09,0-0.18-0.01-0.26C16.59,5.52,16.93,5.16,17.21,4.76L17.21,4.76z"/>
</g>
</svg>
